<svg width="34" height="35" viewBox="0 0 34 35" fill="none" xmlns="http://www.w3.org/2000/svg">
<path d="M10.4026 0.785156H24.3616C29.6794 0.785156 34 5.10582 34 10.4236V24.3826C34 26.9389 32.9846 29.3905 31.177 31.198C29.3695 33.0056 26.9179 34.021 24.3616 34.021H10.4026C5.08483 34.021 0.76416 29.7004 0.76416 24.3826V10.4236C0.76416 7.8673 1.77963 5.41573 3.58718 3.60818C5.39474 1.80063 7.8463 0.785156 10.4026 0.785156ZM10.0702 4.10874C8.48356 4.10874 6.9619 4.73904 5.83997 5.86097C4.71804 6.9829 4.08775 8.50456 4.08775 10.0912V24.715C4.08775 28.022 6.76324 30.6975 10.0702 30.6975H24.694C26.2806 30.6975 27.8023 30.0672 28.9242 28.9452C30.0462 27.8233 30.6765 26.3016 30.6765 24.715V10.0912C30.6765 6.78423 28.001 4.10874 24.694 4.10874H10.0702ZM26.1065 6.60144C26.6574 6.60144 27.1858 6.82029 27.5754 7.20985C27.9649 7.59941 28.1838 8.12776 28.1838 8.67868C28.1838 9.2296 27.9649 9.75795 27.5754 10.1475C27.1858 10.5371 26.6574 10.7559 26.1065 10.7559C25.5556 10.7559 25.0272 10.5371 24.6377 10.1475C24.2481 9.75795 24.0293 9.2296 24.0293 8.67868C24.0293 8.12776 24.2481 7.59941 24.6377 7.20985C25.0272 6.82029 25.5556 6.60144 26.1065 6.60144ZM17.3821 9.09413C19.5858 9.09413 21.6992 9.96953 23.2574 11.5278C24.8157 13.086 25.6911 15.1994 25.6911 17.4031C25.6911 19.6068 24.8157 21.7202 23.2574 23.2784C21.6992 24.8367 19.5858 25.7121 17.3821 25.7121C15.1784 25.7121 13.065 24.8367 11.5068 23.2784C9.94854 21.7202 9.07313 19.6068 9.07313 17.4031C9.07313 15.1994 9.94854 13.086 11.5068 11.5278C13.065 9.96953 15.1784 9.09413 17.3821 9.09413ZM17.3821 12.4177C16.0599 12.4177 14.7918 12.943 13.8569 13.8779C12.922 14.8128 12.3967 16.0809 12.3967 17.4031C12.3967 18.7253 12.922 19.9934 13.8569 20.9283C14.7918 21.8632 16.0599 22.3885 17.3821 22.3885C18.7043 22.3885 19.9724 21.8632 20.9073 20.9283C21.8422 19.9934 22.3675 18.7253 22.3675 17.4031C22.3675 16.0809 21.8422 14.8128 20.9073 13.8779C19.9724 12.943 18.7043 12.4177 17.3821 12.4177Z" fill="white"/>
</svg>
