<svg width="36" height="29" viewBox="0 0 36 29" fill="none" xmlns="http://www.w3.org/2000/svg">
<path d="M35.4854 3.44273C34.2059 4.02436 32.8266 4.40657 31.3974 4.58937C32.8598 3.70862 33.9898 2.31271 34.5216 0.634297C33.1423 1.46519 31.6135 2.04682 30.0015 2.37918C28.6887 0.950038 26.8441 0.119141 24.7502 0.119141C20.845 0.119141 17.6544 3.30979 17.6544 7.24824C17.6544 7.81325 17.7209 8.36164 17.8372 8.8768C11.9212 8.57767 6.65331 5.736 3.14692 1.43196C2.53206 2.47889 2.18308 3.70862 2.18308 5.00482C2.18308 7.48089 3.42943 9.67446 5.35711 10.9208C4.17724 10.9208 3.08045 10.5884 2.11661 10.0899C2.11661 10.0899 2.11661 10.0899 2.11661 10.1398C2.11661 13.5963 4.57607 16.4878 7.83318 17.1359C7.23494 17.3021 6.60346 17.3852 5.95536 17.3852C5.50667 17.3852 5.05799 17.3353 4.62592 17.2522C5.52329 20.0607 8.13231 22.1545 11.2731 22.2044C8.84688 24.1321 5.77256 25.2621 2.41573 25.2621C1.85072 25.2621 1.28571 25.2288 0.720703 25.1624C3.87811 27.1898 7.63377 28.3696 11.6553 28.3696C24.7502 28.3696 31.9458 17.5015 31.9458 8.07913C31.9458 7.76339 31.9458 7.46427 31.9292 7.14853C33.3251 6.15145 34.5216 4.88849 35.4854 3.44273Z" fill="white"/>
</svg>
