<svg xmlns="http://www.w3.org/2000/svg" width="15" height="15" fill="none"><path fill="#007AFF" d="M11.0415 7.49992 7.49984 11.0416V8.91658H4.6665V6.08325h2.83334v-2.125l3.54166 3.54167Zm-10.624996 0c0-.9302.183216-1.85129.539187-2.71068.355969-.85939.877729-1.64025 1.535469-2.29799.65775-.65775 1.43861-1.17951 2.298-1.53548C5.64855.5998 6.56964.416585 7.49984.416584c1.87861.000001 3.68026.746276 5.00866 2.074666 1.3284 1.32838 2.0747 3.13005 2.0747 5.00867 0 .93019-.1832 1.85128-.5392 2.71068-.356.8594-.8777 1.6402-1.5355 2.298-1.3284 1.3284-3.13005 2.0747-5.00866 2.0747-1.87862 0-3.68029-.7463-5.00868-2.0747C1.16278 11.1802.416504 9.37854.416504 7.49992Zm1.416666 0c0 1.50289.59702 2.94428 1.65973 4.00698 1.06271 1.0627 2.50404 1.6597 4.00694 1.6597 1.50289 0 2.94426-.597 4.00696-1.6597 1.0627-1.0627 1.6597-2.50409 1.6597-4.00698 0-1.5029-.597-2.94423-1.6597-4.00694S9.00273 1.83325 7.49984 1.83325c-1.5029 0-2.94423.59702-4.00694 1.65973S1.83317 5.99702 1.83317 7.49992Z"/></svg>