<svg xmlns="http://www.w3.org/2000/svg" width="54" height="54" fill="none"><path fill="#000" d="M26.9679 53.9358c3.5414 0 7.0482-.6976 10.3201-2.0528 3.2719-1.3553 6.2448-3.3417 8.749-5.8459 2.5042-2.5042 4.4907-5.4771 5.8459-8.749 1.3553-3.2719 2.0528-6.7787 2.0528-10.3202 0-7.1523-2.8412-14.0117-7.8987-19.06915C40.9796 2.84129 34.1202.00004578 26.9679.00004578c-3.5415 0-7.0483.69754022-10.3202 2.05280422-3.2719 1.35526-6.2448 3.3417-8.74899 5.8459C2.84125 12.9562 0 19.8156 0 26.9679s2.84125 14.0117 7.89871 19.0692c5.05749 5.0574 11.91679 7.8987 19.06919 7.8987Zm-13.484-21.5743 13.484-13.4839 13.4839 13.4839H13.4839Z"/></svg>