<svg width="1650" height="605" viewBox="0 0 1650 605" fill="none" xmlns="http://www.w3.org/2000/svg">
<mask id="mask0_2_5" style="mask-type:alpha" maskUnits="userSpaceOnUse" x="0" y="2" width="1619" height="603">
<path d="M0 560C0 573.978 0 580.967 2.28361 586.481C5.32843 593.831 11.1687 599.672 18.5195 602.716C24.0326 605 31.0218 605 45 605H1558.44C1584.5 605 1597.54 605 1604.82 600.465C1614.52 594.419 1619.95 583.379 1618.81 571.999C1617.95 563.464 1609.99 553.145 1594.06 532.509L1274.4 118.251C1270.42 113.097 1268.43 110.52 1266.05 108.488C1262.87 105.779 1259.15 103.765 1255.15 102.574C1252.15 101.68 1248.9 101.417 1242.41 100.89L48.6423 3.94998C33.6573 2.73313 26.1649 2.12471 20.224 4.17242C12.3028 6.90271 5.8843 12.8211 2.52184 20.4953C0 26.251 0 33.7681 0 48.8023V560Z" fill="#0081FE"/>
</mask>
<g mask="url(#mask0_2_5)">
<rect width="1650" height="605" fill="#0081FE"/>
</g>
</svg>
